<?xml version="1.0" encoding="utf-8"?>
<!-- Generator: Adobe Illustrator 19.1.1, SVG Export Plug-In . SVG Version: 6.00 Build 0)  -->
<svg version="1.1" id="Ebene_1" xmlns="http://www.w3.org/2000/svg" xmlns:xlink="http://www.w3.org/1999/xlink" x="0px" y="0px"
	 viewBox="0 0 56.7 56.7" style="enable-background:new 0 0 56.7 56.7;" xml:space="preserve">
<style type="text/css">
	.st0{fill:#1D71B8;}
</style>
<path class="st0" d="M48.3,34.1V21.6c1.7-0.7,2.9-2.4,2.9-4.2c0-2.5-2-4.5-4.5-4.5c-1.1,0-2.1,0.4-2.9,1L33,7.5c0,0,0-0.1,0-0.1
	c0-0.2,0-0.4,0-0.6c0-2.5-2-4.5-4.5-4.5c-2.5,0-4.5,2-4.5,4.5c0,0.3,0,0.5,0,0.7l-11,6.3c-0.8-0.7-1.8-1-2.9-1c-2.5,0-4.5,2-4.5,4.5
	c0,2,1.2,3.6,3,4.3v12.5c-1.8,0.6-3,2.3-3,4.3c0,2.5,2,4.5,4.5,4.5c1.3,0,2.4-0.6,3.1-1.1l10.8,6.3c0,0,0,0.1,0,0.1
	c0,0.2,0,0.4,0,0.5c0,2.5,2,4.5,4.5,4.5c2.5,0,4.5-2,4.5-4.5c0-0.2,0-0.5-0.1-0.8l10.7-6.1c0.8,0.7,1.8,1,2.9,1c2.5,0,4.5-2,4.5-4.5
	C51.2,36.4,50,34.7,48.3,34.1z M18,23.6v8.2l-5,2.9c-0.3-0.2-0.8-0.5-1.2-0.7V21.6c0,0,0,0,0.1,0c0.4-0.2,0.9-0.5,1.3-0.8L18,23.6z
	 M10.2,36.9c0.6,0,0.9,0.4,1.1,0.7c0.3,0.5,0.2,1,0.1,1.3c0,0,0,0,0,0.1c-0.2,0.4-0.6,0.7-1.2,0.7c-0.7,0-1.3-0.6-1.3-1.3
	C8.9,37.5,9.4,36.9,10.2,36.9z M11.3,18.1c-0.2,0.2-0.5,0.5-1.1,0.4c0,0,0,0-0.1,0c-0.7,0-1.3-0.6-1.3-1.3s0.6-1.3,1.3-1.3
	c0.7,0,1.1,0.3,1.3,0.8C11.7,17.2,11.6,17.7,11.3,18.1z M14.7,37.5l5-2.9l7.1,4.2v5.7c-0.5,0.2-0.9,0.4-1.3,0.7l-10.8-6.4
	C14.7,38.5,14.7,38,14.7,37.5z M14.7,16.4l10.8-6.2c0.3,0.3,0.8,0.5,1.3,0.7v5.7l-7.1,4l-5-2.9C14.8,17.4,14.8,16.9,14.7,16.4z
	 M42.1,18.3l-4.9,2.8l-7.1-4.2v-5.7c0.1,0,0.1-0.1,0.2-0.1c0,0,0.1-0.1,0.1-0.1l0,0c0.3-0.2,0.6-0.4,0.9-0.6l10.7,6.4
	C42,17.3,42,17.8,42.1,18.3z M21.3,30.1v-6.4l5.5-3.2v6.4L21.3,30.1z M35.5,23.7V30L30,26.8v-6.4L35.5,23.7z M22.9,32.8l5.5-3.1
	l5.5,3.1l-5.5,3.2L22.9,32.8z M28.5,8.1c-0.6,0-1.2-0.4-1.3-1.4c0-0.7,0.6-1.3,1.3-1.3c0.7,0,1.3,0.6,1.4,1.3
	C29.7,7.7,29.1,8.1,28.5,8.1z M28.4,47.4C28.4,47.4,28.4,47.4,28.4,47.4c0.7,0,1.4,0.4,1.4,1.3c0,0.7-0.6,1.3-1.3,1.3
	c-0.7,0-1.4-0.5-1.4-1.3C27.1,47.8,27.8,47.4,28.4,47.4z M30,38.8l7.1-4.2l4.9,2.9c-0.1,0.5,0,1,0,1.5l-10.8,6.2
	c-0.3-0.3-0.8-0.6-1.3-0.8V38.8z M45.4,37.6c0.2-0.3,0.7-0.5,1.2-0.5c0.3,0,0.6,0.1,0.8,0.3c0.3,0.2,0.4,0.6,0.4,0.9
	c0,0.7-0.6,1.3-1.3,1.3c-0.5,0-0.9-0.3-1.1-0.7C45.1,38.4,45.1,37.9,45.4,37.6z M47.3,18.4c-0.4,0.2-0.8,0.2-0.9,0.2c0,0,0,0-0.1,0
	c-0.9-0.3-1.2-1.1-1.1-1.6c0.1-0.5,0.5-1.1,1.3-1.1c0.7,0,1.3,0.7,1.4,1.3C47.9,17.9,47.6,18.3,47.3,18.4z M45.1,21.6V34
	c-0.5,0.2-0.9,0.5-1.2,0.7l-5-2.9v-8.2l4.8-2.8C44.1,21.2,44.6,21.4,45.1,21.6z"/>
<g>
</g>
<g>
</g>
<g>
</g>
<g>
</g>
<g>
</g>
<g>
</g>
</svg>
